<svg xmlns="http://www.w3.org/2000/svg" viewBox="0 0 351.46 65.19">
  <path fill="#76B900" d="M351.46,65.19H0V0H351.46Z"/>
  <path fill="#FFF" d="M85.38,19.92v-.14C76.49,9.07,61.28,3.13,45,4.5a42.16,42.16,0,0,0-32.52,22v.72c0,.52,0,1,0,1.56a23.2,23.2,0,0,1,46.11,3.84C58.52,45.19,48.59,54.77,36,54.77a17.42,17.42,0,0,1-17.42-17.42,17.18,17.18,0,0,1,.52-4.17c.42-1.8,1.91-6.79,8.31-10a19.82,19.82,0,0,1,8-1.52c11.62,0,21.06,11.38,21.06,25.4,0,.6,0,1.19,0,1.77,8.89-2.26,15.62-7.85,18.51-14.51A31.84,31.84,0,0,0,77.55,20.6c0-.23,0-.46,0-.68A31.71,31.71,0,0,0,73.4,6.45,42.58,42.58,0,0,0,45,4.5a42.16,42.16,0,0,0-32.52,22,31.55,31.55,0,0,0,0,25.27A42.16,42.16,0,0,0,45,60.69c14.25,0,26.89-7.1,34.57-18A31.87,31.87,0,0,0,85.38,19.92Z"/>
  <path fill="#FFF" d="M119.32,32.72,106.74,13.31h-9.31V51.88h7.65V26.42l14.42,25.46h7.44V13.31h-7.62Zm27.47,19.16h8.31L139.84,13.31H131.7l-15.26,38.57h8.07l2.77-7.61h13.3Zm-11.35-14,4.42-12.13,4.42,12.13Zm30.66,14h7.65V13.31h-7.65Zm34.41-31.31a19.65,19.65,0,0,0-14.64-6.22H174.16V51.88h11.71a19.65,19.65,0,0,0,14.64-6.22,21.45,21.45,0,0,0,5.81-15.06A21.45,21.45,0,0,0,200.51,20.54Zm-5.63,20.31a11.49,11.49,0,0,1-8.84,3.87h-3.86V20.44h3.86a11.49,11.49,0,0,1,8.84,3.87,13.83,13.83,0,0,1,3.32,9.29A13.83,13.83,0,0,1,194.88,40.85Zm30.66,11h7.65V13.31h-7.65Zm40.07-32.39h-9.31L243.72,32.72V13.31H236.1V51.88h7.44l14.42-25.46V51.88h7.65V13.31Z"/>
</svg>